PathFileType	4	(X/Y/Z)	s03c0201.trc
DataRate	CameraRate	NumFrames	NumMarkers	Units	OrigDataRate	OrigDataStartFrame	OrigNumFrames
200	200	4	52	mm	200	1000	2000
Frame#	Time	racr			lacr			c7			jug			rlel			rdr			llel			ldr			s2			lic			ric			lasi			rasi			rpsi			lpsi			rgt			lgt			rth1			rth2			rth3			rth4			rlfc			rmfc			rsh1			rsh2			rsh3			rsh4			rlmal			rmmal			rcal			rtoe			rmt5			rmt1			lth1			lth2			lth4			lth3			llfc			lmfc			lsh1			lsh2			lsh3			lsh4			llmal			lmmal			lcal			ltoe			lmt1			lmt5			SBIKE			LBIKE			RBIKE			
		X1	Y1	Z1	X2	Y2	Z2	X3	Y3	Z3	X4	Y4	Z4	X5	Y5	Z5	X6	Y6	Z6	X7	Y7	Z7	X8	Y8	Z8	X9	Y9	Z9	X10	Y10	Z10	X11	Y11	Z11	X12	Y12	Z12	X13	Y13	Z13	X14	Y14	Z14	X15	Y15	Z15	X16	Y16	Z16	X17	Y17	Z17	X18	Y18	Z18	X19	Y19	Z19	X20	Y20	Z20	X21	Y21	Z21	X22	Y22	Z22	X23	Y23	Z23	X24	Y24	Z24	X25	Y25	Z25	X26	Y26	Z26	X27	Y27	Z27	X28	Y28	Z28	X29	Y29	Z29	X30	Y30	Z30	X31	Y31	Z31	X32	Y32	Z32	X33	Y33	Z33	X34	Y34	Z34	X35	Y35	Z35	X36	Y36	Z36	X37	Y37	Z37	X38	Y38	Z38	X39	Y39	Z39	X40	Y40	Z40	X41	Y41	Z41	X42	Y42	Z42	X43	Y43	Z43	X44	Y44	Z44	X45	Y45	Z45	X46	Y46	Z46	X47	Y47	Z47	X48	Y48	Z48	X49	Y49	Z49	X50	Y50	Z50	X51	Y51	Z51	X52	Y52	Z52	
1000	5.0000	453.293789	1396.386627	-47.731865	480.255922	1436.782653	-357.478920	397.678394	1500.811569	-194.119217	404.105607	1327.295101	-212.565925	511.249593	1163.884813	92.674200	721.617873	991.893587	-24.380221	527.706465	1202.193386	-515.597765	730.571953	981.183045	-463.281890	-112.084403	1208.802415	-260.647726	66.828088	1262.108437	-436.801305	37.701591	1244.589492	-69.806440	83.393790	1185.178900	-402.196740	65.738509	1195.700439	-105.016004	-94.001062	1262.229862	-217.820638	-82.373793	1261.927436	-298.328614	14.191740	1179.275668	-61.293058	2.740674	1116.641271	-456.643912	150.300599	1114.857954	-45.171985	239.169062	1119.916961	-49.019298	317.087000	1083.615265	-50.011306	245.245689	1152.448330	-67.615547	438.016388	1029.872471	-75.887510	445.221190	1008.093953	-206.970909	364.034024	885.292904	-53.287336	336.753940	801.347091	-64.874497	271.772416	741.769306	-63.090616	362.152013	786.616980	-89.596425	195.072286	628.530959	-78.661650	222.482754	631.989198	-166.108389	121.643142	598.850175	-118.280153	413.232192	490.815522	-120.762535	297.526898	516.978118	-52.020291	325.257798	520.731962	-164.005723	81.835857	975.186259	-479.674941	143.114827	914.627236	-488.661560	174.840911	933.443859	-487.656750	169.659661	829.688695	-478.413028	249.572209	726.183116	-462.353938	265.121333	717.295582	-340.163586	188.164592	565.650392	-474.563899	191.590585	482.402905	-454.601350	149.648726	403.621954	-442.000044	226.281007	477.787585	-436.869777	116.535954	284.080172	-416.529483	156.628246	291.966667	-335.382910	50.324589	268.431643	-366.243559	331.864227	141.633223	-358.415775	245.503256	180.387441	-316.330293	211.887336	159.248802	-433.023660	-214.483631	945.383626	-236.324195	-9.312957	80.768150	-433.751284	-9.207690	81.601353	-33.401095	
1001	5.0050	451.582821	1396.043073	-46.196883	482.065500	1436.413293	-354.884663	397.950279	1500.301569	-193.970334	404.608998	1326.742837	-211.846829	509.346228	1162.708298	93.182374	721.315348	991.674223	-23.782199	529.829976	1203.543235	-515.073500	731.081640	981.304306	-462.603357	-112.447470	1210.036785	-261.402714	67.024542	1261.831439	-437.656777	36.636802	1246.068660	-70.604339	82.952008	1184.911532	-402.824446	65.032817	1195.959015	-106.225347	-94.276273	1263.821358	-218.500577	-82.427606	1263.033645	-299.114681	13.474008	1180.384404	-61.887329	2.459643	1117.368580	-457.379936	149.241563	1114.799230	-46.140574	238.132411	1119.147080	-49.951791	315.787152	1082.300861	-51.316511	244.532957	1151.809743	-68.210980	436.454523	1028.569376	-77.149463	443.782807	1007.603839	-208.389604	365.071341	882.721217	-54.136200	339.676071	798.032203	-64.826456	275.495725	737.392250	-62.997850	365.025757	783.577214	-89.895946	201.011339	622.272247	-77.839573	228.143073	626.099586	-165.373702	128.150415	590.423992	-117.112340	422.761922	491.291858	-120.952765	306.608014	513.902575	-51.640613	334.082077	518.570343	-163.816857	84.081438	977.518492	-480.147963	146.198428	918.015092	-489.410731	177.628169	937.228423	-488.015134	173.860584	833.330536	-479.897687	253.867657	729.766174	-464.167497	269.019816	720.644498	-341.773575	190.031624	570.130533	-475.886958	191.586895	486.943103	-455.576231	147.948634	409.158601	-443.025455	225.977468	481.782998	-437.494161	112.174407	290.631220	-417.342259	152.504019	297.750885	-336.140377	45.514914	277.289173	-366.487267	321.981161	140.476698	-357.948476	237.129165	182.201735	-316.031833	203.151264	162.579833	-432.848458	-214.548332	945.385814	-236.423704	-9.295000	80.817821	-433.801140	-9.224767	81.632853	-33.419760	
1002	5.0100	449.951643	1395.750526	-44.812041	483.727654	1435.902005	-352.498178	397.901051	1499.781034	-192.858784	404.915630	1326.239654	-210.683745	507.905074	1161.704569	92.976599	721.159739	991.531234	-23.156842	531.866451	1204.691257	-514.653817	731.526950	981.297648	-461.866249	-112.819514	1211.115422	-261.956995	67.160610	1261.468347	-438.516961	35.535967	1247.436135	-71.402070	82.557715	1184.594237	-403.534122	64.419636	1196.059401	-107.465675	-94.345783	1265.320921	-219.346428	-82.492936	1264.138355	-299.790585	12.804746	1181.149632	-61.940656	2.236285	1118.070114	-458.036435	148.087374	1113.955350	-47.076349	237.000973	1117.563484	-50.883555	314.340671	1080.312728	-52.297007	243.776480	1150.339860	-68.937089	433.992781	1026.408817	-77.482438	441.946218	1005.433801	-209.339810	365.597371	878.748728	-54.581104	341.794968	793.531830	-64.835471	278.718591	731.710457	-62.780617	367.437379	779.390089	-89.919288	206.718909	614.841820	-76.807392	233.332304	619.067606	-164.528836	134.360661	580.770850	-115.727385	431.951520	491.327678	-121.125994	315.408313	509.974022	-51.127339	341.938302	516.045286	-163.566990	86.367477	980.007079	-480.549616	149.498969	921.514925	-489.834857	180.549075	941.184160	-488.107002	178.341887	837.174098	-481.218343	258.555231	733.681626	-465.809296	273.299585	724.801932	-343.287135	192.623942	574.690468	-476.698978	192.264869	491.830585	-456.424831	146.861073	414.968616	-443.933322	226.201004	486.075884	-437.763595	108.541910	297.584225	-418.321757	148.750409	303.952945	-336.611425	41.113458	287.174535	-367.501783	312.244807	139.652665	-357.491082	228.980770	184.644698	-315.812514	194.748079	166.517068	-432.580685	-214.596488	945.361946	-236.522634	-9.309342	80.849410	-433.812999	-9.238536	81.651641	-33.425305	
1003	5.0150	448.398131	1395.378156	-43.605922	485.316185	1435.135287	-350.021364	397.609550	1499.213528	-190.956774	405.013339	1325.744214	-209.234860	506.530896	1160.741839	92.621087	721.121296	991.460986	-22.483979	533.705369	1205.741464	-514.321010	731.869648	981.329849	-461.074352	-112.973376	1212.429651	-262.692244	67.309598	1260.611264	-439.406175	34.406321	1248.799321	-72.185503	82.081434	1184.240609	-404.090368	63.897332	1196.008691	-108.718712	-93.768668	1266.348163	-220.360382	-82.128236	1264.959291	-300.920219	11.928469	1181.511077	-62.482395	1.967499	1118.269902	-458.402789	146.824692	1112.435401	-47.886776	235.722253	1115.245927	-51.530094	312.776561	1077.401650	-52.879956	242.718101	1147.691458	-69.703037	431.837115	1022.502915	-77.796405	439.614733	1001.601070	-209.811094	365.641881	873.241158	-55.081473	343.481757	787.711831	-64.604861	281.503178	724.650770	-62.296047	369.413949	773.871104	-89.567197	212.220938	605.955515	-75.808918	238.206544	610.913789	-163.537878	140.267423	569.905483	-114.187275	440.666261	490.960598	-121.390340	323.814748	505.270591	-50.459267	349.420749	512.780996	-162.985889	88.753948	982.487298	-480.919433	153.106402	924.844604	-489.224384	183.584753	945.209256	-488.072758	182.954264	841.173725	-482.441028	263.650552	737.782476	-467.266081	277.856988	728.944713	-344.506195	195.549441	579.936828	-478.434191	193.572116	497.650051	-458.162006	146.368532	421.009345	-444.640090	226.735459	490.772256	-437.506357	105.323754	305.087719	-418.959349	145.106906	310.791171	-336.763063	37.282121	297.030598	-367.897522	302.519960	139.314287	-356.326673	221.088305	187.710430	-315.681684	186.793164	171.024090	-432.227797	-214.655696	945.338338	-236.627534	-9.291831	80.859315	-433.829043	-9.250338	81.684499	-33.453228	
